<svg width="154" height="154" viewBox="0 0 154 154" fill="none" xmlns="http://www.w3.org/2000/svg">
<circle cx="77" cy="77" r="77" fill="#FFD6D6"/>
<path d="M75.0359 33C76.5755 30.3333 80.4245 30.3333 81.9641 33L119.636 98.25C121.176 100.917 119.251 104.25 116.172 104.25H40.8279C37.7487 104.25 35.8242 100.917 37.3638 98.25L75.0359 33Z" fill="#FF4545"/>
<path d="M82.1015 47.9408L81.647 81.3953H76.3742L75.9197 47.9408H82.1015ZM79.0106 94.8498C77.8894 94.8498 76.9273 94.4483 76.1242 93.6453C75.3212 92.8423 74.9197 91.8801 74.9197 90.7589C74.9197 89.6377 75.3212 88.6756 76.1242 87.8726C76.9273 87.0695 77.8894 86.668 79.0106 86.668C80.1318 86.668 81.0939 87.0695 81.897 87.8726C82.7 88.6756 83.1015 89.6377 83.1015 90.7589C83.1015 91.5014 82.9121 92.1832 82.5333 92.8044C82.1697 93.4256 81.6773 93.9256 81.0561 94.3044C80.45 94.668 79.7682 94.8498 79.0106 94.8498Z" fill="white"/>
</svg>
