<svg width="90" height="91" viewBox="0 0 90 91" fill="none" xmlns="http://www.w3.org/2000/svg">
<g clip-path="url(#clip0_33_109)">
<path d="M30 63.5C32.4852 63.5 34.5 65.5148 34.5 68V83C34.5 85.4852 32.4852 87.5 30 87.5H7.5C5.01472 87.5 3 85.4853 3 83V68C3 65.5147 5.01472 63.5 7.5 63.5H30ZM82.5 33.5C84.9852 33.5 87 35.5148 87 38V83C87 85.4852 84.9852 87.5 82.5 87.5H60C57.5148 87.5 55.5 85.4852 55.5 83V38C55.5 35.5148 57.5148 33.5 60 33.5H82.5ZM30 3.5C32.4853 3.5 34.5 5.51472 34.5 8V38C34.5 40.4852 32.4852 42.5 30 42.5H7.5C5.01472 42.5 3 40.4853 3 38V8C3 5.51471 5.01471 3.5 7.5 3.5H30ZM82.5 3.5C84.9853 3.5 87 5.51472 87 8C87 10.4852 84.9852 12.5 82.5 12.5H60C57.5148 12.5 55.5 10.4852 55.5 8C55.5 5.51472 57.5147 3.5 60 3.5H82.5Z" stroke="#202020" stroke-width="6"/>
</g>
<defs>
<clipPath id="clip0_33_109">
<rect width="90" height="91" fill="white"/>
</clipPath>
</defs>
</svg>
