<svg width="18" height="20" viewBox="0 0 18 20" fill="none" xmlns="http://www.w3.org/2000/svg">
<path fill-rule="evenodd" clip-rule="evenodd" d="M15.4455 4.59437C15.7481 4.59437 16 4.85277 16 5.18157V5.48557C16 5.80636 15.7481 6.07276 15.4455 6.07276H2.55522C2.25189 6.07276 2 5.80636 2 5.48557V5.18157C2 4.85277 2.25189 4.59437 2.55522 4.59437H4.823C5.28366 4.59437 5.68457 4.25758 5.7882 3.78238L5.90696 3.23679C6.09153 2.4936 6.69894 2 7.3941 2H10.6059C11.2935 2 11.9077 2.4936 12.0855 3.19759L12.2126 3.78158C12.3154 4.25758 12.7163 4.59437 13.1778 4.59437H15.4455ZM14.2935 15.7072C14.5302 13.4376 14.9448 8.0457 14.9448 7.9913C14.9599 7.8265 14.9077 7.6705 14.8041 7.5449C14.6929 7.4273 14.5522 7.3577 14.3971 7.3577H3.60891C3.45309 7.3577 3.30483 7.4273 3.20195 7.5449C3.09756 7.6705 3.04613 7.8265 3.05369 7.9913C3.05508 8.00129 3.06996 8.19122 3.09482 8.50876C3.20529 9.91935 3.51297 13.8481 3.71178 15.7072C3.85248 17.0768 4.72616 17.9376 5.99166 17.9688C6.96821 17.992 7.97427 18 9.00301 18C9.972 18 10.9561 17.992 11.9629 17.9688C13.2723 17.9456 14.1452 17.1 14.2935 15.7072Z" fill="#202020"/>
</svg>
