<svg width="36" height="32" viewBox="0 0 36 32" fill="none" xmlns="http://www.w3.org/2000/svg">
<path fill-rule="evenodd" clip-rule="evenodd" d="M11.8553 2.87447L15.6133 1.5322C16.5574 1.19411 17.304 0.926757 18.0981 0.926758C18.8921 0.926758 19.6388 1.19411 20.5829 1.5322L24.3409 2.87447C27.8994 4.14534 30.6961 5.14416 32.5937 6.12574C33.0522 6.36292 33.4943 6.61702 33.8996 6.89532C34.4042 7.24181 34.8518 7.62581 35.2027 8.06136C35.6973 8.6753 36 9.39165 36 10.2497C36 10.3158 35.9982 10.3811 35.9946 10.4455C35.9444 11.3578 35.5444 12.1051 34.9382 12.7384C34.7297 12.9573 34.4977 13.1615 34.2491 13.3524C33.4175 13.9908 32.2914 14.5683 30.9398 15.1466L30.9398 18.8031C30.9402 21.6303 30.9405 23.3556 30.4734 24.7931C29.531 27.6937 27.2569 29.9678 24.3563 30.9103C22.9188 31.3773 21.1935 31.3771 18.3662 31.3766H17.8299C15.0026 31.3771 13.2773 31.3773 11.8398 30.9103C8.93918 29.9678 6.66506 27.6937 5.7226 24.7931C5.25553 23.3556 5.2558 21.6303 5.25625 18.803L5.25628 15.1445C4.64629 14.8835 4.09427 14.628 3.60261 14.3737C3.31732 14.2261 3.03836 14.072 2.77068 13.9095V21.8487C2.77068 22.535 2.21428 23.0914 1.52793 23.0914C0.841576 23.0914 0.196289 22.5544 0.196289 21.8681V10.2497C0.196289 8.29392 1.76849 7.07446 3.60251 6.12574C5.50007 5.14417 8.29679 4.14535 11.8553 2.87447ZM3.14302 11.1103C3.20525 11.1702 3.27553 11.2325 3.35483 11.2971C3.66289 11.5484 4.1071 11.8362 4.74449 12.166C6.47449 13.0609 9.11081 14.0054 12.7949 15.3212L16.2868 16.5683C17.4717 16.9915 17.7891 17.0871 18.0981 17.0871C18.4071 17.0871 18.7245 16.9915 19.9094 16.5683L23.4013 15.3212C27.0854 14.0054 29.7217 13.0609 31.4517 12.166C33.2636 11.2287 33.5144 10.6293 33.5144 10.2497C33.5144 10.0813 33.4651 9.86978 33.2523 9.60476C33.0751 9.38414 32.7846 9.12644 32.3149 8.82573C32.0763 8.67299 31.7915 8.50917 31.4518 8.33346C29.7218 7.43855 27.0855 6.494 23.4014 5.17825L19.9095 3.9311C18.7246 3.50794 18.4072 3.41234 18.0982 3.41234C17.7892 3.41234 17.4718 3.50794 16.2869 3.9311L12.795 5.17824C9.11091 6.494 6.47459 7.43855 4.74459 8.33346C2.93266 9.27074 2.68189 9.87006 2.68189 10.2497L2.68189 10.252L2.68489 10.3206C2.70225 10.5229 2.80117 10.7813 3.14302 11.1103ZM7.74178 18.5348V16.1325C8.96834 16.5939 10.343 17.0848 11.8553 17.6249L15.6134 18.9672C16.5575 19.3053 17.3041 19.5727 18.0982 19.5727C18.8922 19.5727 19.6388 19.3053 20.583 18.9672L24.3934 17.6062C25.8917 17.0711 27.249 16.5864 28.4543 16.1337V18.5348C28.4543 21.7157 28.4389 23.0114 28.1096 24.025C27.413 26.1689 25.7321 27.8498 23.5882 28.5464C22.5746 28.8758 21.2789 28.8911 18.098 28.8911C14.9172 28.8911 13.6215 28.8758 12.6078 28.5464C10.4639 27.8498 8.78305 26.1689 8.08645 24.025C7.75711 23.0114 7.74178 21.7157 7.74178 18.5348Z" fill="black"/>
</svg>
