<svg width="51" height="50" viewBox="0 0 51 50" fill="none" xmlns="http://www.w3.org/2000/svg">
<g clip-path="url(#clip0_402_31)">
<path fill-rule="evenodd" clip-rule="evenodd" d="M25.869 38.8393C24.8336 38.8393 23.9932 37.9989 23.9932 36.9633V30.6176C23.9932 29.582 24.8336 28.7416 25.869 28.7416C26.9046 28.7416 27.745 29.582 27.745 30.6176V36.9633C27.745 37.9989 26.9046 38.8393 25.869 38.8393Z" fill="black"/>
<mask id="mask0_402_31" style="mask-type:luminance" maskUnits="userSpaceOnUse" x="0" y="6" width="51" height="27">
<path fill-rule="evenodd" clip-rule="evenodd" d="M0.869141 6.70654H50.8691V32.4971H0.869141V6.70654Z" fill="white"/>
</mask>
<g mask="url(#mask0_402_31)">
<path fill-rule="evenodd" clip-rule="evenodd" d="M4.62105 23.7479C10.5641 26.977 18.0579 28.7453 25.8569 28.7453C33.6709 28.7453 41.1721 26.977 47.1177 23.7479V16.239C47.1177 13.0498 44.5389 10.4585 41.3649 10.4585H10.399C7.21237 10.4585 4.62105 13.0398 4.62105 16.214V23.7479ZM25.8569 32.4971C16.9899 32.4971 8.443 30.3511 1.79711 26.4591C1.22182 26.124 0.869141 25.5086 0.869141 24.8409V16.2139C0.869141 10.9712 5.14383 6.70654 10.399 6.70654H41.3649C46.6074 6.70654 50.8697 10.9812 50.8697 16.2389V24.8409C50.8697 25.5086 50.5144 26.124 49.9417 26.4591C43.2957 30.3511 34.7414 32.4971 25.8569 32.4971Z" fill="black"/>
</g>
<mask id="mask1_402_31" style="mask-type:luminance" maskUnits="userSpaceOnUse" x="15" y="0" width="22" height="11">
<path fill-rule="evenodd" clip-rule="evenodd" d="M15.2383 0.25354H36.4991V10.4485H15.2383V0.25354Z" fill="white"/>
</mask>
<g mask="url(#mask1_402_31)">
<path fill-rule="evenodd" clip-rule="evenodd" d="M34.6231 10.4487C33.5876 10.4487 32.7471 9.60831 32.7471 8.57278V7.65731C32.7471 5.64378 31.1089 4.00545 29.0953 4.00545H22.642C20.6286 4.00545 18.9901 5.64378 18.9901 7.65731V8.57278C18.9901 9.60831 18.1497 10.4487 17.1143 10.4487C16.0787 10.4487 15.2383 9.60831 15.2383 8.57278V7.65731C15.2383 3.57524 18.56 0.25354 22.642 0.25354H29.0953C33.1774 0.25354 36.4991 3.57524 36.4991 7.65731V8.57278C36.4991 9.60831 35.6587 10.4487 34.6231 10.4487Z" fill="black"/>
</g>
<path fill-rule="evenodd" clip-rule="evenodd" d="M40.3762 49.6289H11.3613C6.17117 49.6289 1.80145 45.5743 1.40874 40.3967L0.5 22.5C0.5 21.5 1.46653 24.5776 2.49955 24.5C3.53758 24.4624 4.41996 25.9647 4.5 27.0001L5.15065 40.1116C5.39578 43.3432 8.12217 45.877 11.3613 45.877H40.3762C43.6153 45.877 46.3442 43.3432 46.5867 40.1116L47.5 24C47.58 22.9646 47.9844 25.46 49 25.5C50.033 25.5776 51.0776 22.467 51 23.5L50.3287 40.3967C49.936 45.5743 45.5663 49.6289 40.3762 49.6289Z" fill="black"/>
</g>
<defs>
<clipPath id="clip0_402_31">
<rect width="50" height="50" fill="white" transform="translate(0.869141)"/>
</clipPath>
</defs>
</svg>
