<svg width="50" height="51" viewBox="0 0 50 51" fill="none" xmlns="http://www.w3.org/2000/svg">
<g clip-path="url(#clip0_402_61)">
<mask id="path-1-inside-1_402_61" fill="white">
<path d="M40.7604 21.1845C40.7604 23.8509 39.37 27.4187 37.1817 31.2876C35.0293 35.0926 32.2478 38.947 29.7617 42.1172L32.3276 44.1296C34.8628 40.8968 37.7543 36.8983 40.02 32.8928C42.2493 28.9515 44.0213 24.7513 44.0213 21.1845H40.7604ZM20.2372 42.1172C17.7511 38.947 14.9695 35.0926 12.8173 31.2876C10.6289 27.4187 9.23841 23.8509 9.23841 21.1845H5.97754C5.97754 24.7513 7.74952 28.9515 9.97895 32.8928C12.2445 36.8983 15.136 40.8968 17.6712 44.1296L20.2372 42.1172ZM9.23841 21.1845C9.23841 11.6345 16.4054 4.10023 24.9995 4.10023V0.839355C14.3834 0.839355 5.97754 10.0629 5.97754 21.1845H9.23841ZM24.9995 4.10023C33.5935 4.10023 40.7604 11.6345 40.7604 21.1845H44.0213C44.0213 10.0629 35.6154 0.839355 24.9995 0.839355V4.10023ZM29.7617 42.1172C28.4161 43.8333 27.5302 44.9541 26.7367 45.6748C26.0132 46.332 25.5302 46.5039 24.9995 46.5039V49.7648C26.5843 49.7648 27.8141 49.1015 28.9293 48.0885C29.9748 47.1387 31.0537 45.7541 32.3276 44.1296L29.7617 42.1172ZM17.6712 44.1296C18.9453 45.7541 20.0241 47.1387 21.0695 48.0885C22.1848 49.1015 23.4145 49.7648 24.9995 49.7648V46.5039C24.4687 46.5039 23.9856 46.332 23.2622 45.6748C22.4687 44.9541 21.5828 43.8333 20.2372 42.1172L17.6712 44.1296ZM16.8472 22.0352C16.8472 26.5376 20.4971 30.1874 24.9995 30.1874V26.9265C22.298 26.9265 20.1081 24.7365 20.1081 22.0352H16.8472ZM24.9995 30.1874C29.5017 30.1874 33.1517 26.5376 33.1517 22.0352H29.8908C29.8908 24.7365 27.7008 26.9265 24.9995 26.9265V30.1874ZM33.1517 22.0352C33.1517 17.5328 29.5017 13.883 24.9995 13.883V17.1438C27.7008 17.1438 29.8908 19.3338 29.8908 22.0352H33.1517ZM24.9995 13.883C20.4971 13.883 16.8472 17.5328 16.8472 22.0352H20.1081C20.1081 19.3338 22.298 17.1438 24.9995 17.1438V13.883Z"/>
</mask>
<path d="M29.7617 42.1172L32.2302 38.9697L27.2932 45.2646L29.7617 42.1172ZM17.6712 44.1296L15.2027 40.9821L20.1395 47.2772L17.6712 44.1296ZM33.5133 39.9761L32.2303 38.9698L27.2932 45.2646L28.5762 46.2709L33.5133 39.9761ZM16.4859 39.9759L15.2029 40.982L20.1395 47.2772L21.4225 46.2711L16.4859 39.9759ZM28.9995 48.1344V46.5039H20.9995V48.1344H28.9995ZM27.2932 45.2646L29.8591 47.277L34.7961 40.9821L32.2302 38.9697L27.2932 45.2646ZM44.0213 17.1845H40.7604V25.1845H44.0213V17.1845ZM9.23841 17.1845H5.97754V25.1845H9.23841V17.1845ZM20.1396 47.2771L22.7056 45.2647L17.7687 38.9697L15.2027 40.9821L20.1396 47.2771ZM28.9995 4.10023V0.839355H20.9995V4.10023H28.9995ZM20.9995 46.5039V49.7648H28.9995V46.5039H20.9995ZM28.9995 30.1874V26.9265H20.9995V30.1874H28.9995ZM20.1081 18.0352H16.8472V26.0352H20.1081V18.0352ZM33.1517 18.0352H29.8908V26.0352H33.1517V18.0352ZM20.9995 13.883V17.1438H28.9995V13.883H20.9995ZM29.7617 42.1172L23.4665 37.1805L23.4664 37.1807L29.7617 42.1172ZM17.6712 44.1296L11.376 49.0662L11.3762 49.0665L17.6712 44.1296ZM37.1817 31.2876L44.1449 35.2265L44.1451 35.2261L37.1817 31.2876ZM32.3276 44.1296L26.0324 39.1929L26.0323 39.1931L32.3276 44.1296ZM40.02 32.8928L46.9832 36.8315L46.9832 36.8315L40.02 32.8928ZM20.2372 42.1172L26.5326 37.1809L26.5323 37.1805L20.2372 42.1172ZM12.8173 31.2876L5.85397 35.2262L5.85402 35.2263L12.8173 31.2876ZM9.97895 32.8928L16.9423 28.9543L16.9421 28.954L9.97895 32.8928ZM26.7367 45.6748L21.3582 39.7527L21.3577 39.7531L26.7367 45.6748ZM28.9293 48.0885L34.3084 54.0101L34.3088 54.0097L28.9293 48.0885ZM21.0695 48.0885L15.6899 54.0096L15.6905 54.0102L21.0695 48.0885ZM23.2622 45.6748L28.6411 39.7531L28.6407 39.7527L23.2622 45.6748ZM32.7604 21.1845C32.7604 21.1718 32.7601 21.3236 32.6857 21.6719C32.6126 22.0139 32.4838 22.4722 32.2729 23.0522C31.8459 24.2271 31.1659 25.6739 30.2184 27.3491L44.1451 35.2261C46.4321 31.1825 48.7604 26.062 48.7604 21.1845H32.7604ZM30.2186 27.3487C28.3441 30.6625 25.8324 34.1636 23.4665 37.1805L36.0569 47.0539C38.6632 43.7303 41.7146 39.5227 44.1449 35.2265L30.2186 27.3487ZM38.6227 49.0663C41.2784 45.6799 44.4397 41.3281 46.9832 36.8315L33.0568 28.9541C31.0689 32.4684 28.4472 36.1136 26.0324 39.1929L38.6227 49.0663ZM46.9832 36.8315C49.3152 32.7087 52.0213 26.9587 52.0213 21.1845H36.0213C36.0213 22.5439 35.1834 25.1943 33.0567 28.9542L46.9832 36.8315ZM26.5323 37.1805C24.1664 34.1636 21.6548 30.6626 19.7805 27.3489L5.85402 35.2263C8.28421 39.5227 11.3357 43.7304 13.942 47.0539L26.5323 37.1805ZM19.7805 27.349C18.833 25.6738 18.153 24.227 17.7259 23.0521C17.5151 22.4721 17.3863 22.0138 17.3132 21.6718C17.2387 21.3235 17.2384 21.1717 17.2384 21.1845H1.23841C1.23841 26.0621 3.56686 31.1827 5.85397 35.2262L19.7805 27.349ZM-2.02246 21.1845C-2.02246 26.9588 0.683656 32.7088 3.01577 36.8316L16.9421 28.954C14.8154 25.1943 13.9775 22.5438 13.9775 21.1845H-2.02246ZM3.01564 36.8314C5.55905 41.3281 8.72046 45.6799 11.376 49.0662L23.9664 39.1929C21.5516 36.1136 18.9299 32.4684 16.9423 28.9543L3.01564 36.8314ZM17.2384 21.1845C17.2384 15.5072 21.3501 12.1002 24.9995 12.1002V-3.89977C11.4607 -3.89977 1.23841 7.76169 1.23841 21.1845H17.2384ZM24.9995 -7.16064C9.40954 -7.16064 -2.02246 6.22141 -2.02246 21.1845H13.9775C13.9775 13.9043 19.3572 8.83936 24.9995 8.83936V-7.16064ZM24.9995 12.1002C28.6486 12.1002 32.7604 15.5071 32.7604 21.1845H48.7604C48.7604 7.76179 38.5383 -3.89977 24.9995 -3.89977V12.1002ZM52.0213 21.1845C52.0213 6.22147 40.5893 -7.16064 24.9995 -7.16064V8.83936C30.6415 8.83936 36.0213 13.9042 36.0213 21.1845H52.0213ZM23.4664 37.1807C22.7751 38.0622 22.2977 38.6678 21.9042 39.1384C21.5053 39.6157 21.3567 39.754 21.3582 39.7527L32.1153 51.5969C33.5294 50.3126 34.8934 48.5377 36.0571 47.0536L23.4664 37.1807ZM21.3577 39.7531C21.3597 39.7513 21.7579 39.3809 22.5075 39.0429C23.392 38.644 24.281 38.5039 24.9995 38.5039V54.5039C28.102 54.5039 30.4173 53.1392 32.1157 51.5965L21.3577 39.7531ZM24.9995 57.7648C29.1768 57.7648 32.2387 55.8902 34.3084 54.0101L23.5502 42.1669C23.4216 42.2837 23.5225 42.1631 23.8368 42.0206C24.1985 41.8565 24.6187 41.7648 24.9995 41.7648V57.7648ZM34.3088 54.0097C35.9707 52.4999 37.5183 50.4747 38.6229 49.0661L26.0323 39.1931C24.5891 41.0336 23.9789 41.7775 23.5498 42.1672L34.3088 54.0097ZM11.3762 49.0665C12.4805 50.4745 14.0282 52.4999 15.6899 54.0096L26.4491 42.1674C26.02 41.7775 25.4101 41.0337 23.9662 39.1927L11.3762 49.0665ZM15.6905 54.0102C17.7604 55.8904 20.8223 57.7648 24.9995 57.7648V41.7648C25.3801 41.7648 25.8002 41.8565 26.162 42.0205C26.4763 42.163 26.5771 42.2837 26.4485 42.1668L15.6905 54.0102ZM24.9995 38.5039C25.7176 38.5039 26.6064 38.6439 27.4911 39.0427C28.2409 39.3808 28.6392 39.7513 28.6411 39.7531L17.8832 51.5965C19.5819 53.1395 21.8972 54.5039 24.9995 54.5039V38.5039ZM28.6407 39.7527C28.6422 39.754 28.4935 39.6156 28.0946 39.1384C27.7012 38.6678 27.2238 38.0623 26.5326 37.1809L13.9417 47.0535C15.1055 48.5378 16.4695 50.3125 17.8836 51.5969L28.6407 39.7527ZM8.84719 22.0352C8.84719 30.9561 16.079 38.1874 24.9995 38.1874V22.1874C24.9637 22.1874 24.9497 22.1817 24.9426 22.1787C24.9301 22.1734 24.9113 22.1624 24.8917 22.1428C24.8722 22.1232 24.8611 22.1044 24.8559 22.092C24.8529 22.0849 24.8472 22.071 24.8472 22.0352H8.84719ZM24.9995 18.9265C26.7162 18.9265 28.1081 20.3181 28.1081 22.0352H12.1081C12.1081 29.1549 17.8799 34.9265 24.9995 34.9265V18.9265ZM24.9995 38.1874C33.9199 38.1874 41.1517 30.956 41.1517 22.0352H25.1517C25.1517 22.071 25.146 22.0849 25.1431 22.092C25.1378 22.1044 25.1267 22.1232 25.1071 22.1428C25.0875 22.1624 25.0687 22.1735 25.0563 22.1787C25.0492 22.1817 25.0353 22.1874 24.9995 22.1874V38.1874ZM21.8908 22.0352C21.8908 20.3183 23.2826 18.9265 24.9995 18.9265V34.9265C32.1191 34.9265 37.8908 29.1548 37.8908 22.0352H21.8908ZM41.1517 22.0352C41.1517 13.1145 33.92 5.88297 24.9995 5.88297V21.883C25.0352 21.883 25.0491 21.8886 25.0562 21.8916C25.0686 21.8969 25.0875 21.908 25.1071 21.9276C25.1267 21.9472 25.1378 21.966 25.143 21.9784C25.146 21.9855 25.1517 21.9995 25.1517 22.0352H41.1517ZM24.9995 25.1438C23.2825 25.1438 21.8908 23.752 21.8908 22.0352H37.8908C37.8908 14.9155 32.1192 9.14384 24.9995 9.14384V25.1438ZM24.9995 5.88297C16.0789 5.88297 8.84719 13.1145 8.84719 22.0352H24.8472C24.8472 21.9994 24.8529 21.9855 24.8559 21.9784C24.8611 21.966 24.8722 21.9472 24.8918 21.9276C24.9114 21.908 24.9302 21.8969 24.9426 21.8917C24.9497 21.8887 24.9637 21.883 24.9995 21.883V5.88297ZM28.1081 22.0352C28.1081 23.7522 26.7162 25.1438 24.9995 25.1438V9.14384C17.8799 9.14384 12.1081 14.9154 12.1081 22.0352H28.1081Z" fill="black" mask="url(#path-1-inside-1_402_61)"/>
</g>
<defs>
<clipPath id="clip0_402_61">
<rect width="50" height="50" fill="white" transform="translate(0 0.295898)"/>
</clipPath>
</defs>
</svg>
