<svg width="20" height="20" viewBox="0 0 20 20" fill="none" xmlns="http://www.w3.org/2000/svg">
<path d="M4.36322 0C3.96144 0 3.56422 0.145272 3.23589 0.408245L3.18792 0.432259L3.16394 0.456274L0.765361 2.92976L0.789347 2.95377C0.0498512 3.63873 -0.179834 4.66198 0.141731 5.54733C0.143382 5.55209 0.140066 5.56657 0.141731 5.57134C0.791834 7.43683 2.45749 11.0358 5.70642 14.2886C8.96808 17.5541 12.612 19.1542 14.4133 19.8599H14.4372C15.3707 20.1714 16.3795 19.9496 17.0997 19.3316L17.1236 19.3076L17.1476 19.2836L19.5222 16.9061C20.1593 16.2683 20.1593 15.1665 19.5222 14.5287L16.4041 11.4068L16.3801 11.3588C15.743 10.721 14.6186 10.721 13.9815 11.3588L13.9575 11.3828L12.4464 12.8957C11.8915 12.63 10.5687 11.9428 9.30429 10.7344C8.04884 9.53463 7.40554 8.1542 7.16956 7.61256L8.70464 6.07564C9.35073 5.42878 9.36061 4.3568 8.68066 3.72223L8.70464 3.69822L8.63269 3.62617L5.56251 0.456274L5.53852 0.432259L5.49055 0.408245C5.16223 0.145272 4.76501 0 4.36322 0ZM4.36322 1.53692C4.41945 1.53692 4.47567 1.56455 4.53112 1.60896L7.6013 4.75485L7.64927 4.80288L7.67326 4.82689C7.66719 4.82205 7.7196 4.90057 7.62528 4.99499L5.70642 6.91615L5.34664 7.25235L5.51454 7.73264C5.51454 7.73264 6.39746 10.0937 8.24891 11.8631L8.41681 12.0072C10.1999 13.6377 12.3025 14.5287 12.3025 14.5287L12.7822 14.7448L13.142 14.3846L15.0609 12.4635C15.1914 12.3328 15.1702 12.3328 15.3007 12.4635L18.4429 15.6094C18.5734 15.74 18.5734 15.6948 18.4429 15.8255L16.0923 18.1789C15.7378 18.4831 15.365 18.5446 14.917 18.395C13.1767 17.7111 9.79762 16.2233 6.78578 13.2079C3.74917 10.1677 2.16231 6.71665 1.58088 5.04302C1.46383 4.73052 1.54855 4.268 1.82073 4.03442L1.84472 4.0104L1.86871 3.98639L4.19532 1.60896C4.25077 1.56455 4.307 1.53692 4.36322 1.53692Z" fill="#202020"/>
</svg>
