<svg width="90" height="104" viewBox="0 0 90 104" fill="none" xmlns="http://www.w3.org/2000/svg">
<g clip-path="url(#clip0_33_94)">
<path d="M45 55.3846C29.7331 55.3846 17.3077 42.9592 17.3077 27.6923C17.3077 12.4254 29.7331 0 45 0C60.2669 0 72.6923 12.4254 72.6923 27.6923C72.6923 42.9592 60.2669 55.3846 45 55.3846ZM45 7.22408C33.7304 7.22408 24.5318 16.4227 24.5318 27.6923C24.5318 38.9619 33.7304 48.1605 45 48.1605C56.2696 48.1605 65.4682 38.9619 65.4682 27.6923C65.4682 16.4227 56.2696 7.22408 45 7.22408Z" fill="#202020"/>
<path d="M86.3865 103.846C84.4111 103.846 82.773 102.185 82.773 100.181C82.773 83.3212 65.8137 69.6379 45 69.6379C24.1863 69.6379 7.22698 83.3212 7.22698 100.181C7.22698 102.185 5.58887 103.846 3.61349 103.846C1.63812 103.846 0 102.185 0 100.181C0 79.314 20.1874 62.3076 45 62.3076C69.8126 62.3076 90 79.314 90 100.181C90 102.185 88.3619 103.846 86.3865 103.846Z" fill="#202020"/>
</g>
<defs>
<clipPath id="clip0_33_94">
<rect width="90" height="104" fill="white"/>
</clipPath>
</defs>
</svg>
