<svg width="36" height="36" viewBox="0 0 36 36" fill="none" xmlns="http://www.w3.org/2000/svg">
<path d="M15.1876 28.2722C14.9399 28.2722 14.7088 28.2061 14.4941 28.0575C14.1474 27.8264 13.9493 27.4467 13.9493 27.0339C13.9493 26.7862 13.9328 26.5221 13.8998 26.2579C13.7512 25.0857 13.2228 24.062 12.3313 23.1705C11.4397 22.2789 10.3335 21.7175 9.14475 21.5689C8.94663 21.5524 8.66595 21.5359 8.40178 21.5524C7.97251 21.5855 7.57626 21.4038 7.3286 21.0571C7.08095 20.7269 7.01491 20.2811 7.14699 19.8849C7.39464 19.2079 7.75787 18.5971 8.18715 18.1017L10.7298 14.8987C15.105 9.43378 23.9711 2.86262 30.4597 0.253977C31.8466 -0.274357 33.2995 0.039341 34.3066 1.02997C35.3468 2.07012 35.6605 3.55606 35.1157 4.90992C32.507 11.415 25.9524 20.2646 20.4874 24.6399L17.2349 27.2485C16.624 27.6943 16.1287 27.975 15.6333 28.1731C15.5013 28.2392 15.3362 28.2722 15.1876 28.2722ZM10.4161 19.307C11.8029 19.6702 13.0412 20.3967 14.0814 21.4369C15.1215 22.4605 15.815 23.6493 16.1617 24.9701L18.9519 22.7247C24.1362 18.5806 30.3607 10.1767 32.8207 4.00184C33.0684 3.39096 32.7216 2.96169 32.5565 2.81309C32.441 2.69752 32.0117 2.33429 31.3513 2.58195C25.2094 5.05851 16.8056 11.2829 12.645 16.4672L10.4161 19.307Z" fill="black"/>
<path d="M4.70367 35.5038C3.46539 35.5038 2.27664 35.0085 1.38508 34.117C0.361428 33.0933 -0.133884 31.6734 0.03122 30.2205L0.477002 26.1589C0.906273 22.1304 4.20836 19.142 8.30295 19.0595C8.61664 19.0429 9.0294 19.0595 9.40914 19.0925C11.2088 19.3236 12.8103 20.1326 14.0981 21.4204C15.3694 22.6917 16.1289 24.2107 16.36 25.9113C16.4096 26.2745 16.4426 26.6708 16.4426 27.0175C16.4426 29.1969 15.6006 31.2276 14.0816 32.7631C12.8103 34.0179 11.1758 34.7939 9.32659 35.025L5.24851 35.4708C5.0669 35.4873 4.88529 35.5038 4.70367 35.5038ZM8.61664 21.5525C8.5506 21.5525 8.46805 21.5525 8.40201 21.5525C5.90893 21.6021 3.26726 23.3026 2.93706 26.4396L2.49127 30.5012C2.40872 31.1946 2.65638 31.8715 3.13518 32.3669C3.61398 32.8457 4.29091 33.0933 4.96784 33.0108L9.0294 32.565C10.3007 32.3999 11.4399 31.8715 12.2985 31.013C13.3551 29.9563 13.9495 28.5364 13.9495 27.0175C13.9495 26.7698 13.933 26.5057 13.9 26.2415C13.7514 25.0692 13.2231 24.0456 12.3315 23.154C11.4399 22.2625 10.3337 21.7011 9.14498 21.5525C9.01289 21.5525 8.81477 21.5525 8.61664 21.5525Z" fill="black"/>
<path d="M21.4781 23.0714C20.8012 23.0714 20.2399 22.51 20.2399 21.8331C20.2399 18.2008 17.2845 15.262 13.6687 15.262C12.9918 15.262 12.4304 14.7006 12.4304 14.0237C12.4304 13.3468 12.9753 12.7854 13.6522 12.7854C18.6383 12.7854 22.6999 16.847 22.6999 21.8331C22.7164 22.5266 22.1551 23.0714 21.4781 23.0714Z" fill="black"/>
</svg>
