<svg width="94" height="95" viewBox="0 0 94 95" fill="none" xmlns="http://www.w3.org/2000/svg">
<g clip-path="url(#clip0_33_97)">
<path d="M59.2783 0.521973C40.1452 0.521973 24.5565 16.1034 24.5565 35.2275C24.5565 43.4472 27.52 50.9635 32.3233 56.9185L0 89.2265L5.25395 94.478L37.5771 62.1699C43.5348 66.9709 51.0547 69.933 59.2783 69.933C78.4112 69.933 94 54.3516 94 35.2275C94 16.1034 78.4112 0.521973 59.2783 0.521973ZM59.2783 7.8284C74.4607 7.8284 86.6901 20.0521 86.6901 35.2275C86.6901 50.4028 74.4607 62.6266 59.2783 62.6266C44.0958 62.6266 31.8663 50.4028 31.8663 35.2275C31.8663 20.0521 44.0958 7.8284 59.2783 7.8284Z" fill="#202020"/>
</g>
<defs>
<clipPath id="clip0_33_97">
<rect width="94" height="95" fill="white"/>
</clipPath>
</defs>
</svg>
